<svg width="531" height="298" viewBox="0 0 531 298" fill="none" xmlns="http://www.w3.org/2000/svg">
<path d="M64.6 297.5V275H26.2V23H64.6V0.499991H0.7V297.5H64.6ZM206.664 95.9L224.364 126.5L239.064 117.8L221.664 87.2H256.764V70.4H221.664L239.064 39.8L224.364 31.1L206.964 61.7L188.964 31.1L174.264 39.8L191.964 70.4H156.564V87.2H191.964L174.264 117.8L188.964 126.5L206.664 95.9ZM348.618 0.499991V23H387.318V275H348.618V297.5H412.818V0.499991H348.618ZM447.034 23.3C492.034 32 504.634 88.7 504.634 149C504.634 209.3 492.034 266 447.034 274.7V297.5C507.934 291.2 530.734 223.4 530.734 149C530.734 74.6 508.534 5.29998 447.034 0.499991V23.3Z" fill="#FFF500"/>
</svg>
